<svg xmlns="http://www.w3.org/2000/svg" width="354" height="354" shape-rendering="geometricPrecision" text-rendering="geometricPrecision" image-rendering="optimizeQuality" fill-rule="evenodd" fill="#009aff" clip-rule="evenodd" viewBox="0 0 35400 35400"><path d="M22506 22346c-2610-2611-6842-2611-9452 0 2610-2611 2610-6842 0-9452 2610 2610 6842 2610 9452 0-2610 2610-2610 6841 0 9452zM18372 9579h-1183c-4115 0-7450 3335-7450 7449v1184c0 4113 3335 7449 7450 7449h1183c4115 0 7449-3336 7449-7449v-1184c0-4114-3334-7449-7449-7449zM4906 11718l-387 928-928-387 387-928zM4458 18251l28-806-2046-70 19-576 2046 69 28-803 475 16-74 2186zM3441 21348c87 98 197 168 330 208 132 40 276 45 432 15s287-89 396-176c107-87 184-192 228-316 45-123 54-254 27-391-26-136-83-253-171-352-87-98-198-167-330-207-133-40-277-46-432-15-156 30-288 88-396 175s-184 193-229 317c-45 123-53 253-27 390 27 137 84 254 172 352zm1865-51c-72 220-194 406-367 558-173 150-380 249-623 296s-473 33-689-42c-217-75-400-202-550-380-149-178-248-390-296-638-43-222-38-433 15-635 53-200 147-376 283-526s304-261 502-334l-63-326-1008 196-111-570 2477-480 110 569-973 189 65 333c205-1 397 43 575 132 177 89 326 217 446 382s201 356 243 573c49 247 36 482-36 703zM4441 25251l1349-678-1444-109-115-231 754-1208-1325 662-245-490 2257-1127 215 432-979 1545 1817 131 216 432-2255 1131zM6838 27746l-365 294-1223-1524 1967-1579 1193 1487-365 293-831-1034-427 343 734 913-354 284-734-913-455 366zM10392 28159l-1629 1927-446-377 668-790-875-740-668 789-446-376 1629-1927 446 377-642 760 875 740 642-760zM10030 30726c-129-198-197-412-206-643s46-456 167-675c120-219 280-387 480-503 200-117 417-174 653-172s468 66 695 190c192 106 346 234 464 387 118 152 195 321 231 505l-495 123c-55-255-193-443-414-565-137-75-275-112-416-111-140 1-270 39-389 113-119 75-216 180-291 318-75 136-112 275-111 416 1 140 39 269 113 388s180 216 317 291c221 122 455 136 700 44l162 483c-176 71-360 97-553 79s-385-80-577-185c-225-124-402-285-530-483zM13362 31250l-384-124-311 968-553-178 772-2401 553 177-312 971 398 128 943-768 587 188-1158 908 410 1502-632-203zM16623 32365c126-56 230-141 311-256s130-250 146-405-4-298-59-426c-55-129-139-234-251-315-113-81-243-129-391-144-148-16-286 4-412 60-127 56-231 141-312 256-81 114-129 250-145 405-17 155 3 297 58 426 56 129 139 234 252 315 112 80 242 128 391 144 148 15 285-5 412-60zm-1151 312c-197-134-345-306-442-516-98-209-134-437-108-683s108-461 247-647c139-184 319-321 540-412 220-90 461-122 722-95 260 27 488 108 685 243 196 134 343 305 442 515s136 438 110 684-109 461-249 646c-141 184-320 322-540 412-220 91-460 122-720 95-261-27-489-108-687-242zM18420 29728l398-43c24 173 132 249 326 228 95-10 166-40 211-90s64-118 58-204l397-43c18 179-27 322-131 427-104 106-272 172-504 197-458 50-710-107-755-472zm-384 760l577-63 179 1634 1017-1765 545-60 274 2508-573 63-179-1630-1017 1760-549 61-274-2508zM23907 31085c84-110 133-234 149-374 15-139-7-281-69-425-60-144-146-259-257-345s-235-137-372-154c-137-16-275 5-412 63s-248 142-331 252c-85 109-134 234-149 373-16 140 7 282 68 426 60 144 146 259 257 345s235 137 372 153c138 17 275-5 412-63 137-57 248-141 332-251zm-857 830c-237-23-449-102-636-238s-328-318-424-546c-97-228-129-456-97-685s124-436 273-622c150-187 345-330 587-432 241-102 480-142 716-120 236 23 448 102 637 238 187 136 330 317 426 545s128 457 94 686c-33 230-124 438-273 623-148 185-343 329-584 431-242 102-481 142-719 120zM26385 29797c123-85 200-175 232-268 31-93 15-187-50-279-126-182-315-186-568-10l-480 333 387 556 479-332zm-2147-1055l1673-1160 265 382-1197 829 296 427 575-398c251-174 478-254 682-241 204 14 374 119 511 317 143 208 182 419 115 635s-233 416-500 601l-983 681-1437-2073zM27797 25697l1819 1748-400 416-1476-1419-599 623 367 378c249 257 438 479 567 665 129 187 199 360 210 520 12 160-49 308-182 447-55 57-132 117-229 181l-330-369c28-16 55-38 82-65 97-100 105-228 24-381-80-155-241-359-484-612l-713-736 1344-1396zM30174 24883l-1031-173 606 851 425-678zm473 79l-620 993 339 476-317 507-1543-2290 306-489 2737 381-325 519-577-97zM31853 23440c-177 155-380 253-608 295-227 42-457 18-691-70-234-87-423-222-567-403s-231-388-263-622c-31-234-1-473 90-715 77-205 183-376 316-514 135-139 290-239 467-301l192 473c-244 90-411 253-499 490-55 146-72 288-51 427s77 262 167 369c91 107 209 188 356 243 146 55 288 72 427 51 138-21 262-77 369-167 107-91 188-209 243-355 89-236 70-470-57-700l456-228c95 163 147 342 156 536 10 193-24 392-101 597-90 240-224 439-402 594zM31052 18961l-146 794 2014 370-104 567-2014-370-145 791-467-86 394-2152zM30617 18714l-9-580 1643-26-1663-1177-9-548 2523-40 9 576-1639 26 1659 1177 9 552zM31060 12697l-382-930 929-384 383 930zM8432 9204c-225 71-450 79-675 26-225-54-426-168-606-342-178-175-297-374-356-597-58-224-55-449 10-676s189-433 370-619c153-156 319-270 497-343 179-73 361-102 548-87l-15 510c-259-15-477 67-654 247-109 112-182 235-218 371-37 136-35 271 4 406 40 134 116 256 228 365 111 109 235 182 370 219 135 36 271 35 405-6 135-39 257-115 366-227 176-180 253-401 229-662l510-27c21 189-4 373-73 554-69 182-180 350-333 506-179 184-382 312-607 382zM10372 5116l-662 463 1175 1676-472 332-1174-1676-658 461-274-390 1792-1256zM12827 3435l-162 2262c-16 217-70 401-162 550-92 150-216 259-372 329-120 54-257 84-410 89l-53-462c104-13 188-33 249-61 66-29 118-71 156-127 39-55 64-127 78-214l8-35-1666-1283 568-256 1167 962 76-1519 523-235zM14588 4628c4 207-23 365-81 475l1104-230-320-1538-847 176 64 362c50 297 76 548 80 755zm1933 56l204 977-529 110-107-512-1743 363 107 512-529 110-200-978 99-20c147-35 229-166 246-390 17-225-8-534-76-930l-133-779 1898-396 418 2005 345-72zM17390 5048c-207-113-369-270-486-469s-174-424-172-673c2-251 64-474 184-671 121-198 286-351 494-460 210-111 443-164 703-162 219 2 416 42 592 121 176 78 323 190 442 336l-378 342c-169-198-380-299-632-301-155-1-295 31-418 98-124 68-220 163-289 285-70 121-106 261-107 417-2 156 32 295 99 419 67 123 162 219 284 289 122 69 261 104 417 106 252 2 464-95 637-293l371 349c-121 146-271 256-449 331-179 75-377 112-596 110-257-2-489-60-696-174zM21080 5039c133-40 246-113 340-217s158-233 193-384c35-153 32-296-7-431-39-134-110-249-212-342-101-94-225-157-371-190-144-34-284-31-416 10-132 40-246 112-339 216-94 104-159 232-194 385-34 152-32 295 7 430 40 135 110 249 212 342 102 94 225 157 371 191 145 33 284 29 416-10zm-1179 172c-181-157-306-346-378-566-72-219-80-450-25-691s163-445 323-612 355-281 585-345c231-63 473-66 728-7 255 58 473 166 651 322 179 157 305 345 378 565 72 221 81 451 26 692-55 242-163 445-324 612-162 166-357 281-585 345-230 63-471 65-727 7-255-58-472-165-652-322zM23372 4861l491 234c116 55 213 73 294 54s143-73 186-164c43-90 45-172 9-248-37-76-112-141-225-195l-491-234-264 553zm640 1103c90-188 11-342-236-459l-579-277-275 576 580 276c246 118 417 79 510-116zm567-101c29 129 11 261-53 398-97 202-248 323-455 362-207 40-452-7-736-143l-1122-536 1085-2276 1061 505c264 126 446 276 545 448s104 353 13 541c-54 113-129 199-226 258-97 58-209 88-334 90 119 107 193 225 222 353zM26343 7897l-281 376-1565-1170 1510-2020 1527 1140-280 375-1062-793-328 439 938 701-271 363-939-700-350 467zM29141 8561l-548-591-1501 1392-392-423 1500-1392-546-590 348-322 1488 1603z"/></svg>