<svg version="1.1" shape-rendering="geometricPrecision" text-rendering="geometricPrecision" image-rendering="optimizeQuality" xmlns="http://www.w3.org/2000/svg" x="0" y="0" viewBox="0 0 1752.3 1752.3" xml:space="preserve"><style>.st0{fill:none;stroke:#fff;stroke-width:9.9968;stroke-miterlimit:10}</style><path class="st0" d="M180.2 839.5a80.88 80.88 0 010-114.4c-31.6 31.6-82.8 31.6-114.5 0a80.88 80.88 0 010 114.4c31.7-31.6 82.9-31.6 114.5 0zM335.5 827.5h-6.6c-23.1 0-41.8-18.7-41.8-41.8V779c0-23.1 18.7-41.8 41.8-41.8h6.6c23.1 0 41.8 18.7 41.8 41.8v6.6c0 23.1-18.7 41.9-41.8 41.9zM497.1 736.5h91.7v91.7h-91.7zM807.8 839.5a80.88 80.88 0 010-114.4 80.88 80.88 0 01-114.4 0 80.88 80.88 0 010 114.4 80.88 80.88 0 01114.4 0zM78.7 945h91.7v91.7H78.7zM389.4 1048.1c-31.6-31.6-31.6-82.8 0-114.5a80.88 80.88 0 01-114.4 0c31.6 31.6 31.6 82.8 0 114.5a80.88 80.88 0 01114.4 0zM544.7 1036h-6.6c-23.1 0-41.8-18.7-41.8-41.8v-6.6c0-23.1 18.7-41.8 41.8-41.8h6.6c23.1 0 41.8 18.7 41.8 41.8v6.6c0 23.1-18.7 41.8-41.8 41.8zM78.7 1570.7h91.7v91.7H78.7zM389.4 1673.8a80.88 80.88 0 010-114.4 80.88 80.88 0 01-114.4 0 80.88 80.88 0 010 114.4 80.88 80.88 0 01114.4 0zM544.7 1661.7h-6.6c-23.1 0-41.8-18.7-41.8-41.8v-6.6c0-23.1 18.7-41.8 41.8-41.8h6.6c23.1 0 41.8 18.7 41.8 41.8v6.6c0 23.1-18.7 41.8-41.8 41.8zM706.3 945H798v91.7h-91.7zM1017 1048.1c-31.6-31.6-31.6-82.8 0-114.5-31.6 31.6-82.8 31.6-114.5 0 31.6 31.6 31.6 82.8 0 114.5 31.7-31.6 82.9-31.6 114.5 0zM706.3 1570.7H798v91.7h-91.7zM1017 1673.8a80.88 80.88 0 010-114.4c-31.6 31.6-82.8 31.6-114.5 0a80.88 80.88 0 010 114.4c31.7-31.6 82.9-31.6 114.5 0zM1172.3 1661.7h-6.6c-23.1 0-41.8-18.7-41.8-41.8v-6.6c0-23.1 18.7-41.8 41.8-41.8h6.6c23.1 0 41.8 18.7 41.8 41.8v6.6c0 23.1-18.7 41.8-41.8 41.8zM1333.9 1570.7h91.7v91.7h-91.7zM1644.6 1673.8a80.88 80.88 0 010-114.4 80.88 80.88 0 01-114.4 0 80.88 80.88 0 010 114.4 80.88 80.88 0 01114.4 0zM126.3 1244.6h-6.6c-23.1 0-41.8-18.7-41.8-41.8v-6.6c0-23.1 18.7-41.8 41.8-41.8h6.6c23.1 0 41.8 18.7 41.8 41.8v6.6c0 23.1-18.7 41.8-41.8 41.8zM180.2 1465.2c-31.6-31.6-31.6-82.8 0-114.5-31.6 31.6-82.8 31.6-114.5 0 31.6 31.6 31.6 82.8 0 114.5 31.7-31.6 82.9-31.6 114.5 0zM335.5 1453.2h-6.6c-23.1 0-41.8-18.7-41.8-41.8v-6.6c0-23.1 18.7-41.8 41.8-41.8h6.6c23.1 0 41.8 18.7 41.8 41.8v6.6c0 23-18.7 41.8-41.8 41.8zM287.9 1153.6h91.7v91.7h-91.7zM598.6 1256.7c-31.6-31.6-31.6-82.8 0-114.5-31.6 31.6-82.8 31.6-114.5 0 31.6 31.6 31.6 82.8 0 114.5 31.7-31.6 82.9-31.6 114.5 0zM753.9 1244.6h-6.6c-23.1 0-41.8-18.7-41.8-41.8v-6.6c0-23.1 18.7-41.8 41.8-41.8h6.6c23.1 0 41.8 18.7 41.8 41.8v6.6c0 23.1-18.7 41.8-41.8 41.8zM497.1 1362.2h91.7v91.7h-91.7zM807.8 1465.2c-31.6-31.6-31.6-82.8 0-114.5a80.88 80.88 0 01-114.4 0c31.6 31.6 31.6 82.8 0 114.5a80.88 80.88 0 01114.4 0zM963.1 1453.2h-6.6c-23.1 0-41.8-18.7-41.8-41.8v-6.6c0-23.1 18.7-41.8 41.8-41.8h6.6c23.1 0 41.8 18.7 41.8 41.8v6.6c0 23-18.7 41.8-41.8 41.8zM915.5 1153.6h91.7v91.7h-91.7zM1226.2 1256.7c-31.6-31.6-31.6-82.8 0-114.5a80.88 80.88 0 01-114.4 0c31.6 31.6 31.6 82.8 0 114.5a80.88 80.88 0 01114.4 0zM1124.7 1362.2h91.7v91.7h-91.7zM1435.4 1465.2c-31.6-31.6-31.6-82.8 0-114.5-31.6 31.6-82.8 31.6-114.5 0 31.6 31.6 31.6 82.8 0 114.5 31.7-31.6 82.9-31.6 114.5 0zM180.2 213.8a80.88 80.88 0 010-114.4c-31.6 31.6-82.8 31.6-114.5 0a80.88 80.88 0 010 114.4c31.7-31.6 82.9-31.6 114.5 0zM78.7 319.3h91.7V411H78.7zM389.4 422.4c-31.6-31.6-31.6-82.8 0-114.5a80.88 80.88 0 01-114.4 0c31.6 31.6 31.6 82.8 0 114.5a80.88 80.88 0 01114.4 0zM126.3 618.9h-6.6c-23.1 0-41.8-18.7-41.8-41.8v-6.6c0-23.1 18.7-41.8 41.8-41.8h6.6c23.1 0 41.8 18.7 41.8 41.8v6.6c0 23.1-18.7 41.8-41.8 41.8zM287.9 527.9h91.7v91.7h-91.7zM598.6 631c-31.6-31.6-31.6-82.8 0-114.5-31.6 31.6-82.8 31.6-114.5 0 31.6 31.6 31.6 82.8 0 114.5 31.7-31.6 82.9-31.6 114.5 0z"/></svg>