<svg version="1.1" id="Layer_1" shape-rendering="geometricPrecision" text-rendering="geometricPrecision" image-rendering="optimizeQuality" xmlns="http://www.w3.org/2000/svg" x="0" y="0" viewBox="0 0 700.6 688.8" xml:space="preserve"><style>.st0{fill:none;stroke:#fff;stroke-width:9.9968;stroke-miterlimit:10}</style><path class="st0" d="M219 166.2a80.88 80.88 0 010-114.4c-31.6 31.6-82.8 31.6-114.5 0a80.88 80.88 0 010 114.4 81 81 0 01114.5 0zM374.3 154.1h-6.6c-23.1 0-41.8-18.7-41.8-41.8v-6.6c0-23.1 18.7-41.8 41.8-41.8h6.6c23.1 0 41.8 18.7 41.8 41.8v6.6c0 23.1-18.7 41.8-41.8 41.8zM535.9 63.1h91.7v91.7h-91.7zM428.2 374.8c-31.6-31.6-31.6-82.8 0-114.5a80.88 80.88 0 01-114.4 0c31.6 31.6 31.6 82.8 0 114.5 31.5-31.6 82.8-31.6 114.4 0zM583.5 362.7h-6.6c-23.1 0-41.8-18.7-41.8-41.8v-6.6c0-23.1 18.7-41.8 41.8-41.8h6.6c23.1 0 41.8 18.7 41.8 41.8v6.6c0 23.1-18.7 41.8-41.8 41.8zM637.4 583.3c-31.6-31.6-31.6-82.8 0-114.5-31.6 31.6-82.8 31.6-114.5 0 31.6 31.6 31.6 82.8 0 114.5a81 81 0 01114.5 0z"/></svg>